<mxfile host="app.diagrams.net" modified="2024-10-21T16:03:26.200Z" agent="Mozilla/5.0 (Windows NT 10.0; Win64; x64) AppleWebKit/537.36 (KHTML, like Gecko) Chrome/129.0.0.0 Safari/537.36" etag="HQ4C7PFxuL09amdG4c_K" version="24.0.1" type="device">
  <diagram name="Сторінка-1" id="WymH9-nKOuTenvjN7uru">
    <mxGraphModel dx="712" dy="779" grid="1" gridSize="10" guides="1" tooltips="1" connect="1" arrows="1" fold="1" page="1" pageScale="1" pageWidth="2339" pageHeight="3300" math="0" shadow="0">
      <root>
        <mxCell id="0" />
        <mxCell id="1" parent="0" />
        <mxCell id="jGQvWvN9SYJSjHNZsSCp-3" value="" style="edgeStyle=orthogonalEdgeStyle;rounded=0;orthogonalLoop=1;jettySize=auto;html=1;" edge="1" parent="1" source="jGQvWvN9SYJSjHNZsSCp-1" target="jGQvWvN9SYJSjHNZsSCp-2">
          <mxGeometry relative="1" as="geometry" />
        </mxCell>
        <mxCell id="jGQvWvN9SYJSjHNZsSCp-1" value="Початок&lt;div&gt;&lt;br&gt;&lt;/div&gt;" style="rounded=1;whiteSpace=wrap;html=1;" vertex="1" parent="1">
          <mxGeometry x="290" y="10" width="120" height="60" as="geometry" />
        </mxCell>
        <mxCell id="jGQvWvN9SYJSjHNZsSCp-2" value="" style="whiteSpace=wrap;html=1;rounded=1;" vertex="1" parent="1">
          <mxGeometry x="290" y="150" width="120" height="60" as="geometry" />
        </mxCell>
        <mxCell id="jGQvWvN9SYJSjHNZsSCp-4" value="Приготування борщу&lt;div&gt;&lt;br&gt;&lt;/div&gt;" style="text;html=1;align=center;verticalAlign=middle;whiteSpace=wrap;rounded=0;" vertex="1" parent="1">
          <mxGeometry x="40" y="30" width="60" height="30" as="geometry" />
        </mxCell>
      </root>
    </mxGraphModel>
  </diagram>
</mxfile>
